<svg xmlns="http://www.w3.org/2000/svg" xmlns:xlink="http://www.w3.org/1999/xlink" id="Group_1045" data-name="Group 1045" width="182" height="54" viewBox="0 0 182 54"><defs><clipPath id="clip-path"><rect id="Rectangle_893" data-name="Rectangle 893" width="182" height="54" fill="#222"></rect></clipPath></defs><g id="Group_922" data-name="Group 922" clip-path="url(#clip-path)"><path id="Path_6070" data-name="Path 6070" d="M557.5,222.695h-2.086v-4.435H557.5c2.1,0,3.258.664,3.258,2.118,0,1.59-1.207,2.317-3.258,2.317m-2.086-9.417h1.844c1.854,0,2.814.514,2.814,1.893,0,1.2-.844,1.937-2.882,1.937h-1.775Zm4.4,4.333v-.072a2.586,2.586,0,0,0,1.752-2.562c0-2.074-1.686-2.89-4.123-2.89h-3.558v11.8h3.831c2.673,0,4.537-1.133,4.537-3.452A2.736,2.736,0,0,0,559.816,217.611Z" transform="translate(-442.778 -170.205)" fill="#222"></path><path id="Path_6071" data-name="Path 6071" d="M624.4,219.093h-3.606l.577-1.8c.43-1.319.815-2.608,1.187-3.976h.074c.384,1.361.769,2.657,1.2,3.976Zm-2.64-7.007-4.054,11.8h1.553l1.152-3.594h4.37l1.14,3.594h1.616l-4.054-11.8h-1.722Z" transform="translate(-493.795 -170.205)" fill="#222"></path><path id="Path_6072" data-name="Path 6072" d="M694.846,216.723,693.137,216c-.939-.391-1.984-.816-1.984-1.952,0-1.055.891-1.723,2.234-1.723a3.864,3.864,0,0,1,2.72,1.106l.809-.964a4.986,4.986,0,0,0-3.53-1.462c-2.178,0-3.773,1.329-3.773,3.131a3.335,3.335,0,0,0,2.427,3.038l1.721.747c1.132.487,2,.871,2,2.076,0,1.146-.933,1.918-2.506,1.918a4.716,4.716,0,0,1-3.307-1.463l-.912,1.031a5.791,5.791,0,0,0,4.193,1.751c2.519,0,4.085-1.49,4.085-3.353C697.315,218.124,696.233,217.31,694.846,216.723Z" transform="translate(-550.819 -169.334)" fill="#222"></path><rect id="Rectangle_892" data-name="Rectangle 892" width="1.525" height="11.799" transform="translate(152.492 41.882)" fill="#222"></rect><path id="Path_6073" data-name="Path 6073" d="M804.166,221.907c-2.272,0-3.711-1.859-3.711-4.824,0-2.94,1.505-4.767,3.771-4.767a3.281,3.281,0,0,1,2.434,1.113l.836-.978A4.5,4.5,0,0,0,804.2,211c-3.041,0-5.319,2.32-5.319,6.126,0,3.832,2.237,6.106,5.223,6.106a4.652,4.652,0,0,0,3.678-1.7l-.836-.941a3.62,3.62,0,0,1-2.778,1.325Z" transform="translate(-638.628 -169.33)" fill="#222"></path><path id="Path_6074" data-name="Path 6074" d="M871.837,216.723,870.129,216c-.939-.391-1.984-.816-1.984-1.952,0-1.055.891-1.723,2.234-1.723a3.864,3.864,0,0,1,2.721,1.106l.809-.964a4.988,4.988,0,0,0-3.53-1.462c-2.178,0-3.773,1.329-3.773,3.131a3.335,3.335,0,0,0,2.427,3.038l1.721.747c1.132.487,2,.871,2,2.076,0,1.146-.933,1.918-2.506,1.918a4.717,4.717,0,0,1-3.307-1.463l-.912,1.031a5.792,5.792,0,0,0,4.193,1.751c2.52,0,4.085-1.49,4.085-3.353C874.307,218.124,873.224,217.31,871.837,216.723Z" transform="translate(-692.307 -169.334)" fill="#222"></path><path id="Path_6075" data-name="Path 6075" d="M7.157,215.749H2.832V211H0v12.333H2.832v-5.148H7.157v5.148H9.99V211H7.157Z" transform="translate(0 -169.33)" fill="#222"></path><path id="Path_6076" data-name="Path 6076" d="M93.724,213.11H93.8c.334,1.287.669,2.745,1.017,3.978l.3,1.141h-2.68l.3-1.141c.348-1.233.683-2.676.986-3.978Zm1.962,7.286.771,2.938h3L95.52,211H92.131L88.2,223.334h2.9l.774-2.938h3.821Z" transform="translate(-70.504 -169.334)" fill="#222"></path><path id="Path_6077" data-name="Path 6077" d="M192.127,214.618h.076c-.133,1.193-.362,2.988-.362,4.19v4.526h2.579V211h-3.09l-1.969,5.48c-.251.728-.464,1.518-.715,2.278h-.076c-.251-.759-.47-1.55-.721-2.278L185.817,211h-3.09v12.333h2.54v-4.526c0-1.2-.228-3-.362-4.19h.077l1,2.919,1.774,4.725h1.572l1.771-4.725,1.028-2.919Z" transform="translate(-146.073 -169.334)" fill="#222"></path><path id="Path_6078" data-name="Path 6078" d="M282.252,216.932v-3.721h1.3c1.533,0,2.371.462,2.371,1.753s-.737,1.968-2.294,1.968h-1.382Zm6.451-1.968c0-3-2.223-3.967-4.98-3.967h-4.3V223.33h2.832v-4.184H283.8c2.655,0,4.9-1.282,4.9-4.181Z" transform="translate(-223.369 -169.331)" fill="#222"></path><path id="Path_6079" data-name="Path 6079" d="M367.758,218.149h4.271v-2.338h-4.271v-2.475h5.018V211h-7.85v12.333h8.042v-2.338h-5.21Z" transform="translate(-291.723 -169.33)" fill="#222"></path><path id="Path_6080" data-name="Path 6080" d="M447.275,213.21h1.449c1.49,0,2.29.407,2.29,1.627s-.8,1.84-2.29,1.84h-1.449Zm7.119,10.119L451.56,218.4a3.628,3.628,0,0,0,2.23-3.561c0-2.932-2.178-3.841-4.835-3.841h-4.512v12.333h2.832v-4.438h1.557l2.392,4.438Z" transform="translate(-355.289 -169.33)" fill="#222"></path><path id="Path_6081" data-name="Path 6081" d="M447.489,22.065c0-1.353.03-4.286.092-5.884A20.772,20.772,0,0,1,450.573,16q5.334,0,5.333,5.046a18.351,18.351,0,0,1-.765,5.3Q453.82,29,449.622,29q-1.6,0-2.133-.045V22.066Zm0-14.966c0-1.354.03-4.286.092-5.884a20.772,20.772,0,0,1,2.991-.183q5.334,0,5.333,5.045a18.351,18.351,0,0,1-.765,5.3q-1.321,2.649-5.519,2.648-1.6,0-2.133-.046V7.1ZM452.2,32.416l-.111-.017a13.858,13.858,0,0,0,6.279-1.535Q464,27.713,464,21.984q0-7.237-9.553-7.648a26.223,26.223,0,0,0,3.339-.982,8.936,8.936,0,0,0,2.551-1.529,6.79,6.79,0,0,0,2.574-5.411A6,6,0,0,0,461.844,2.9Q459.827,0,453.358,0q-1.415,0-3.455.091-2.574.115-5.774.114-1.158,0-2.16-.007h-.029a12.5,12.5,0,0,0-7.827,2.045c-1.662,1.113-3.048,2.645-2.84,4.611.489,4.624,7.073,1.575,4.853-1.875l-1.572-1.784a9.645,9.645,0,0,1,5.658-2.156.5.5,0,0,1,.558.5V5.952q.066,1.712.066,4.251V21.777l-.066,4.848v1.007a4.2,4.2,0,0,1-2.045,3.595.376.376,0,0,0-.184.321v.639a.229.229,0,0,0,.231.228H452.2Z" transform="translate(-344.744 0)" fill="#222"></path><path id="Path_6082" data-name="Path 6082" d="M341.454,33.6a4.225,4.225,0,0,1-1.863-2.373c-.044-2.091-.067-4.786-.067-6.481V12.756a3.522,3.522,0,0,1-2.834-.462,3.739,3.739,0,0,1-1.516-2.849c-.159-1.5.31-3.726,3.443-5.824.362-.242.735-.465,1.116-.672h-8.851a.23.23,0,0,0-.232.228v.639a.373.373,0,0,0,.183.32,4.222,4.222,0,0,1,1.881,2.432q.182,1.923.183,6.147v3.672H321.6V12.715a64.608,64.608,0,0,1,.219-6.484,4.236,4.236,0,0,1,1.766-2.1.375.375,0,0,0,.183-.32V3.177a.229.229,0,0,0-.231-.228H313.016a.23.23,0,0,0-.232.228v.639a.373.373,0,0,0,.182.32,4.227,4.227,0,0,1,1.8,2.183q.209,1.888.209,6.4V24.74c0,1.618-.02,4.147-.061,6.193a4.221,4.221,0,0,1-1.948,2.693.374.374,0,0,0-.182.32v.639a.23.23,0,0,0,.232.229h10.521a.23.23,0,0,0,.231-.229v-.639a.373.373,0,0,0-.183-.32,4.22,4.22,0,0,1-1.923-2.587c-.041-2.063-.063-4.653-.063-6.3V18.364h11.294v6.377c0,1.519-.018,3.84-.053,5.81a4.214,4.214,0,0,1-2.01,3.044.374.374,0,0,0-.183.32v.639a.231.231,0,0,0,.232.229H341.4a.23.23,0,0,0,.231-.229v-.639a.372.372,0,0,0-.183-.32Z" transform="translate(-250.041 -2.367)" fill="#222"></path></g></svg>