<svg id="Layer_1" data-name="Layer 1" xmlns="http://www.w3.org/2000/svg" xmlns:xlink="http://www.w3.org/1999/xlink" viewBox="0 0 275 68"><defs><style>.cls-1{fill:#06f0f6;}.cls-2{fill:#0af9ff;}.cls-3{fill:url(#linear-gradient);}.cls-4{fill:#fff;fill-rule:evenodd;}</style><linearGradient id="linear-gradient" x1="118.28" y1="67.64" x2="140.11" y2="-12.46" gradientTransform="matrix(1, 0, 0, -1, 0, 70)" gradientUnits="userSpaceOnUse"><stop offset="0" stop-color="#06f0f6"/><stop offset="1" stop-color="#27c4e7"/></linearGradient></defs><path class="cls-1" d="M147.34,28.78a2.44,2.44,0,0,0,0,3.42,2.4,2.4,0,0,0,3.41,0,2.43,2.43,0,0,0,0-3.42A2.4,2.4,0,0,0,147.34,28.78Z" transform="translate(0 0)"/><path class="cls-1" d="M137.5,28.55a9.69,9.69,0,1,0-9.63-9.69A9.66,9.66,0,0,0,137.5,28.55Z" transform="translate(0 0)"/><path class="cls-1" d="M137.5,4.85a2.43,2.43,0,1,0-2.41-2.43A2.42,2.42,0,0,0,137.5,4.85Z" transform="translate(0 0)"/><path class="cls-2" d="M147.34,9a2.4,2.4,0,0,0,3.41,0,2.43,2.43,0,0,0,0-3.42,2.4,2.4,0,0,0-3.41,0A2.43,2.43,0,0,0,147.34,9Z" transform="translate(0 0)"/><path class="cls-1" d="M151.43,18.86a2.41,2.41,0,1,0,2.4-2.42A2.41,2.41,0,0,0,151.43,18.86Z" transform="translate(0 0)"/><path class="cls-1" d="M137.5,32.88a2.43,2.43,0,1,0,2.4,2.42A2.42,2.42,0,0,0,137.5,32.88Z" transform="translate(0 0)"/><path class="cls-3" d="M127.65,28.78a2.4,2.4,0,0,0-3.41,0,2.43,2.43,0,0,0,0,3.42,2.4,2.4,0,0,0,3.41,0A2.43,2.43,0,0,0,127.65,28.78Z" transform="translate(0 0)"/><path class="cls-1" d="M123.57,18.86a2.41,2.41,0,1,0-2.4,2.43A2.41,2.41,0,0,0,123.57,18.86Z" transform="translate(0 0)"/><path class="cls-1" d="M127.65,9a2.43,2.43,0,0,0,0-3.42,2.4,2.4,0,0,0-3.41,0,2.44,2.44,0,0,0,0,3.42A2.4,2.4,0,0,0,127.65,9Z" transform="translate(0 0)"/><path class="cls-4" d="M132.72,54.62a.74.74,0,0,1-.2.25.42.42,0,0,1-.26.08.66.66,0,0,1-.4-.19c-.16-.12-.35-.25-.59-.4a4.48,4.48,0,0,0-.85-.42,3.43,3.43,0,0,0-1.19-.18,3.26,3.26,0,0,0-1.17.19,2.54,2.54,0,0,0-.84.52,2.08,2.08,0,0,0-.51.77,2.47,2.47,0,0,0-.18.95,1.92,1.92,0,0,0,.3,1.1,2.93,2.93,0,0,0,.79.73,6.82,6.82,0,0,0,1.12.53L130,59a12,12,0,0,1,1.28.55,4.31,4.31,0,0,1,1.12.75,3.29,3.29,0,0,1,.79,1.13,3.79,3.79,0,0,1,.31,1.63A5.65,5.65,0,0,1,133.2,65a4.34,4.34,0,0,1-1,1.56,4.43,4.43,0,0,1-1.53,1.05,5.42,5.42,0,0,1-2.07.38,5.88,5.88,0,0,1-2.58-.55,6.16,6.16,0,0,1-2-1.49l.57-1a.69.69,0,0,1,.19-.19.46.46,0,0,1,.27-.09.48.48,0,0,1,.29.12,3.68,3.68,0,0,1,.39.28l.49.39a5.09,5.09,0,0,0,.62.38,5.34,5.34,0,0,0,.8.29,4,4,0,0,0,1,.11A3.54,3.54,0,0,0,130,66a2.6,2.6,0,0,0,.92-.57,2.51,2.51,0,0,0,.59-.91,3.13,3.13,0,0,0,.21-1.17,2.06,2.06,0,0,0-.31-1.16,2.57,2.57,0,0,0-.78-.76,5,5,0,0,0-1.12-.52l-1.29-.43c-.43-.16-.86-.33-1.28-.53a4.1,4.1,0,0,1-1.12-.76,3.55,3.55,0,0,1-.79-1.17,4.5,4.5,0,0,1-.3-1.75,4.37,4.37,0,0,1,.3-1.6,4.14,4.14,0,0,1,.87-1.38,4.34,4.34,0,0,1,1.42-1,4.88,4.88,0,0,1,1.93-.36,5.85,5.85,0,0,1,2.22.41,5.22,5.22,0,0,1,1.77,1.21ZM59.56,59.53a5,5,0,0,1-1.51.22H56V53.84h2.16a3.92,3.92,0,0,1,2.57.71,2.57,2.57,0,0,1,.85,2.11,3.39,3.39,0,0,1-.22,1.25,2.56,2.56,0,0,1-.67,1A3.29,3.29,0,0,1,59.56,59.53ZM63,67.82h1.75L60.53,61.6a2,2,0,0,0-.65-.66,5.26,5.26,0,0,0,1.51-.62,4.13,4.13,0,0,0,1.84-2.27,5.05,5.05,0,0,0-.07-3.34,3.46,3.46,0,0,0-1-1.38,4.42,4.42,0,0,0-1.66-.86,8.43,8.43,0,0,0-2.39-.3H54V67.82h2V61.29h1.5a1.19,1.19,0,0,1,.61.12,1,1,0,0,1,.38.37l3.78,5.59A.86.86,0,0,0,63,67.82ZM23.06,54h4.73V52.17H16.37V54H21.1V67.82h2ZM9,67.82V66.1H2V60.76H7.66V59.1H2V53.9H9V52.17H0V67.82ZM45.11,66.1v1.72h-9V52.17h9V53.9h-7v5.2h5.68v1.66H38.08V66.1ZM84.75,52.17V67.82h-1a.82.82,0,0,1-.4-.09,1.15,1.15,0,0,1-.3-.29l-8.44-11.8,0,.54c0,.17,0,.33,0,.49V67.82H72.93V52.17h1a.72.72,0,0,1,.22,0,.38.38,0,0,1,.16.05.72.72,0,0,1,.15.11l.15.18,8.44,11.78c0-.19,0-.37,0-.54s0-.36,0-.52V52.17Zm15.34,3.47L102.38,62H96.94l2.29-6.36a13.58,13.58,0,0,0,.44-1.47q.09.42.21.81C100,55.23,100,55.45,100.09,55.64ZM105,67.82h1.53l-5.84-15.65h-2L92.83,67.82h1.53a.64.64,0,0,0,.43-.15.85.85,0,0,0,.23-.35l1.37-3.78h6.54l1.37,3.78a.88.88,0,0,0,.24.36A.65.65,0,0,0,105,67.82Zm50.46-4.58a10.29,10.29,0,0,0,0-6.46A7.62,7.62,0,0,0,154,54.25a6.52,6.52,0,0,0-2.28-1.66,7.57,7.57,0,0,0-5.86,0,6.48,6.48,0,0,0-2.27,1.66,7.45,7.45,0,0,0-1.47,2.53,10.29,10.29,0,0,0,0,6.46,7.41,7.41,0,0,0,1.47,2.52,6.45,6.45,0,0,0,2.27,1.65,7.69,7.69,0,0,0,5.86,0A6.49,6.49,0,0,0,154,65.76,7.57,7.57,0,0,0,155.43,63.24Zm-1.88-5.82a9.22,9.22,0,0,1,0,5.17,5.55,5.55,0,0,1-1,1.94,4.51,4.51,0,0,1-1.62,1.21,5.76,5.76,0,0,1-4.27,0A4.67,4.67,0,0,1,145,64.53a5.71,5.71,0,0,1-1-1.94,9.46,9.46,0,0,1,0-5.17,5.62,5.62,0,0,1,1-1.94,4.58,4.58,0,0,1,1.64-1.22,5.52,5.52,0,0,1,4.27,0,4.42,4.42,0,0,1,1.62,1.22A5.46,5.46,0,0,1,153.55,57.42Zm13.33-3.52v5.47h6V61.1h-6v6.72h-2V52.17h9V53.9Zm20.86.05h4.73V52.17H181V54h4.74V67.82h2Zm31.94-1.78-4.55,15.65h-1.77l-3.69-11.94c0-.12-.07-.24-.1-.37s-.06-.27-.1-.41c0,.14-.07.28-.1.41s-.07.25-.1.37l-3.72,11.94h-1.77l-4.55-15.65h1.64a.65.65,0,0,1,.44.14.58.58,0,0,1,.23.36l3,10.88c0,.19.09.41.13.63s.09.47.13.72c.05-.25.1-.49.14-.72s.11-.44.18-.63l3.43-10.88a.82.82,0,0,1,.23-.34.63.63,0,0,1,.44-.16h.57a.6.6,0,0,1,.43.14.76.76,0,0,1,.24.36l3.42,10.88a4.92,4.92,0,0,1,.16.61c.06.22.11.45.16.69,0-.24.07-.47.11-.69s.08-.42.13-.61l3-10.88a.63.63,0,0,1,.22-.35.67.67,0,0,1,.44-.15Zm12.92,3.47L234.89,62h-5.44l2.29-6.36a13.58,13.58,0,0,0,.44-1.47c.06.28.14.55.21.81S232.54,55.45,232.6,55.64Zm4.88,12.18H239l-5.84-15.65h-2l-5.84,15.65h1.53a.64.64,0,0,0,.43-.15.85.85,0,0,0,.23-.35l1.37-3.78h6.54l1.37,3.78a.88.88,0,0,0,.24.36A.65.65,0,0,0,237.48,67.82Zm13.65-8.07a4.84,4.84,0,0,0,1.5-.22,3.19,3.19,0,0,0,1.1-.64,2.46,2.46,0,0,0,.67-1,3.39,3.39,0,0,0,.23-1.25,2.57,2.57,0,0,0-.86-2.11,3.89,3.89,0,0,0-2.56-.71h-2.16v5.91Zm6.74,8.07h-1.76a.85.85,0,0,1-.79-.45l-3.79-5.59a1,1,0,0,0-.37-.37,1.22,1.22,0,0,0-.61-.12h-1.5v6.53h-2V52.17h4.12a8.43,8.43,0,0,1,2.39.3,4.57,4.57,0,0,1,1.66.86,3.46,3.46,0,0,1,1,1.38,5.23,5.23,0,0,1,.07,3.34,4.31,4.31,0,0,1-.71,1.3,4.24,4.24,0,0,1-1.13,1,5.51,5.51,0,0,1-1.51.62,2,2,0,0,1,.65.66Zm17.12,0V66.1h-7V60.76h5.68V59.1H268V53.9h7V52.17h-9V67.82Z" transform="translate(0 0)"/></svg>